<svg id="Layer_1" data-name="Layer 1" xmlns="http://www.w3.org/2000/svg" viewBox="0 0 30 30"><defs><style>.cls-1{fill:#00669b;}</style></defs><title>cluster-final</title><ellipse class="cls-1" cx="25.23" cy="6.27" rx="4.27" ry="2.13"/><path class="cls-1" d="M25.23,9.5c-2,0-3.75-.71-4.17-1.66a1.13,1.13,0,0,0-.1.46c0,1.17,1.91,2.13,4.27,2.13s4.27-1,4.27-2.13a1.13,1.13,0,0,0-.1-.46C29,8.79,27.27,9.5,25.23,9.5Z"/><path class="cls-1" d="M25.23,11.56c-2,0-3.75-.71-4.17-1.67a1.13,1.13,0,0,0-.1.46c0,1.17,1.91,2.13,4.27,2.13s4.27-1,4.27-2.13a1.13,1.13,0,0,0-.1-.46C29,10.85,27.27,11.56,25.23,11.56Z"/><path class="cls-1" d="M25.23,13.63c-2,0-3.75-.71-4.17-1.67a1.13,1.13,0,0,0-.1.46c0,1.17,1.91,2.13,4.27,2.13s4.27-1,4.27-2.13a1.13,1.13,0,0,0-.1-.46C29,12.92,27.27,13.63,25.23,13.63Z"/><ellipse class="cls-1" cx="4.77" cy="6.27" rx="4.27" ry="2.13"/><path class="cls-1" d="M4.77,9.5C2.73,9.5,1,8.79.6,7.83a1.13,1.13,0,0,0-.1.46c0,1.17,1.91,2.13,4.27,2.13S9,9.47,9,8.29a1.13,1.13,0,0,0-.1-.46C8.52,8.79,6.82,9.5,4.77,9.5Z"/><path class="cls-1" d="M4.77,11.56c-2,0-3.75-.71-4.17-1.67a1.13,1.13,0,0,0-.1.46c0,1.17,1.91,2.13,4.27,2.13S9,11.53,9,10.36a1.13,1.13,0,0,0-.1-.46C8.52,10.85,6.82,11.56,4.77,11.56Z"/><path class="cls-1" d="M4.77,13.63C2.73,13.63,1,12.92.6,12a1.13,1.13,0,0,0-.1.46c0,1.17,1.91,2.13,4.27,2.13S9,13.6,9,12.42a1.13,1.13,0,0,0-.1-.46C8.52,12.92,6.82,13.63,4.77,13.63Z"/><ellipse class="cls-1" cx="14.92" cy="17.58" rx="4.27" ry="2.13"/><path class="cls-1" d="M14.92,20.8c-2,0-3.75-.71-4.17-1.66a1.13,1.13,0,0,0-.1.46c0,1.17,1.91,2.13,4.27,2.13s4.27-1,4.27-2.13a1.13,1.13,0,0,0-.1-.46C18.67,20.09,17,20.8,14.92,20.8Z"/><path class="cls-1" d="M14.92,22.87c-2,0-3.75-.71-4.17-1.67a1.13,1.13,0,0,0-.1.46c0,1.17,1.91,2.13,4.27,2.13s4.27-1,4.27-2.13a1.13,1.13,0,0,0-.1-.46C18.67,22.16,17,22.87,14.92,22.87Z"/><path class="cls-1" d="M14.92,24.93c-2,0-3.75-.71-4.17-1.67a1.13,1.13,0,0,0-.1.46c0,1.17,1.91,2.13,4.27,2.13s4.27-1,4.27-2.13a1.13,1.13,0,0,0-.1-.46C18.67,24.22,17,24.93,14.92,24.93Z"/><path class="cls-1" d="M19.23,9.19a4.13,4.13,0,0,0-.43-.57,5.84,5.84,0,0,1-7.35,0l-.27-.24a4.24,4.24,0,0,0-.86,1.18,5.21,5.21,0,0,1,3.29,2.22,4,4,0,0,1,.56,2.81l.74,0c.29,0,.58,0,.86,0A4,4,0,0,1,16.32,12a5.07,5.07,0,0,1,3.06-2.24l.13,0A3.92,3.92,0,0,0,19.23,9.19Z"/></svg>