<svg id="Layer_1" data-name="Layer 1" xmlns="http://www.w3.org/2000/svg" viewBox="0 0 30 30"><defs><style>.cls-1{fill:#00669b;fill-rule:evenodd;}</style></defs><title>server-v3</title><path class="cls-1" d="M5.31,23a.27.27,0,0,1-.08-.2v-2a.29.29,0,0,1,.29-.29l7.65-.15,11.35.48a.28.28,0,0,1,.2.1.27.27,0,0,1,.07.2v2.65a.3.3,0,0,1-.07.2.27.27,0,0,1-.2.08L13.19,25A.41.41,0,0,1,13,25a.22.22,0,0,1-.11-.11.28.28,0,0,1-.06-.15v-1.4L5.5,23.07A.27.27,0,0,1,5.31,23Z"/><path class="cls-1" d="M24.71,14.93a.25.25,0,0,1,.07.18v3.35a.29.29,0,0,1,0,.15.3.3,0,0,1-.13.11.22.22,0,0,1-.15,0L13.14,17.59a.27.27,0,0,1-.18-.1.27.27,0,0,1-.08-.2V15.54L5.56,16.67a.28.28,0,0,1-.15,0,.3.3,0,0,1-.13-.11.24.24,0,0,1-.06-.15V14.56a.23.23,0,0,1,.07-.17.21.21,0,0,1,.17-.11l7.65-1.69a.12.12,0,0,1,.11,0l11.33,2.24A.26.26,0,0,1,24.71,14.93Z"/><path class="cls-1" d="M24.58,8.18a.27.27,0,0,1,.14.11.26.26,0,0,1,.06.17V12a.37.37,0,0,1,0,.17l-.13.1-.18,0L13.11,9.94a.27.27,0,0,1-.17-.11.28.28,0,0,1-.07-.18V8.18L5.6,10.43H5.43a.39.39,0,0,1-.15-.11.26.26,0,0,1-.06-.17V8.56a.3.3,0,0,1,.06-.17.22.22,0,0,1,.13-.1L13.54,5a.25.25,0,0,1,.18,0Z"/></svg>