<svg id="Layer_1" data-name="Layer 1" xmlns="http://www.w3.org/2000/svg" viewBox="0 0 30 30"><defs><style>.cls-1{fill:#00669b;}</style></defs><title>solution-manager-final</title><path class="cls-1" d="M27.5,16.43V13.57l-2.84-.71a9.81,9.81,0,0,0-.58-1.8L26,8.81,24.27,6.49l-2.72,1.1A9.91,9.91,0,0,0,20,6.48l.2-2.93L17.5,2.67,15.95,5.15c-.31,0-.63,0-.95,0s-.63,0-.95,0L12.5,2.67l-2.72.89L10,6.48A9.92,9.92,0,0,0,8.45,7.59L5.73,6.49,4,8.81l1.88,2.24a9.81,9.81,0,0,0-.58,1.8l-2.84.71v2.86l2.84.71a9.81,9.81,0,0,0,.58,1.8L4,21.19l1.68,2.32,2.72-1.1A9.91,9.91,0,0,0,10,23.52l-.2,2.93,2.72.89,1.55-2.48c.31,0,.63,0,.95,0s.64,0,.95,0l1.55,2.48,2.72-.88L20,23.52a9.89,9.89,0,0,0,1.52-1.11l2.72,1.1L26,21.19l-1.88-2.24a9.8,9.8,0,0,0,.58-1.8ZM15,22.94A7.94,7.94,0,1,1,22.94,15,7.94,7.94,0,0,1,15,22.94ZM13.28,12.53,14,13.83v.65L15,15l1-.52v-.65l.68-1.31a.53.53,0,0,0,.36-.1,1.07,1.07,0,0,0,.23-1.12c-.12-.22-.27-.21-.27-.21s0-.48,0-1.1-.2-1.15-.78-1.15A1.3,1.3,0,0,0,15,8.23c-1.29,0-2,.72-2,1.67,0,.61,0,1.19,0,1.19s-.15,0-.27.21a1.07,1.07,0,0,0,.23,1.12A.53.53,0,0,0,13.28,12.53Zm3.36,2.25-1.12,4.13V16.82l-.26-.65.26-.39L15,15.26l-.52.52.26.39-.26.65v2.08l-1.12-4.13a28.48,28.48,0,0,0-3.14,1,7.65,7.65,0,0,0-1,3.22c0,.24,2.86.72,5.73.72s5.73-.48,5.73-.72a7.65,7.65,0,0,0-1-3.22A28.48,28.48,0,0,0,16.64,14.78Z"/></svg>