<svg id="Layer_1" data-name="Layer 1" xmlns="http://www.w3.org/2000/svg" viewBox="0 0 30 30"><defs><style>.cls-1{fill:#fff;}.cls-2{fill:#00669b;}</style></defs><title>environment-v3</title><path class="cls-1" d="M6.74,13.89l-1,3.95H4.2L2.65,12H4.14L5.05,16l1-3.93H7.39l1,3.93L9.34,12h1.5L9.3,17.84H7.77Z"/><path class="cls-1" d="M15,13.89l-1,3.95H12.46L10.91,12H12.4L13.31,16l1-3.93h1.33l1,3.93L17.6,12h1.5l-1.55,5.79H16Z"/><path class="cls-1" d="M23.25,13.89l-1,3.95H20.71L19.16,12h1.49L21.56,16l1-3.93H23.9l1,3.93L25.86,12h1.5l-1.55,5.79H24.29Z"/><path id="_Compound_Path_" data-name="&lt;Compound Path&gt;" class="cls-2" d="M24.08,10.06A7.38,7.38,0,0,0,11.57,8.33,5.85,5.85,0,0,0,5.15,13,5.84,5.84,0,0,0,6.84,24.4h4.64V18H7.88a1.93,1.93,0,1,0,0,1.7h1.9v2.87H6.84a4,4,0,0,1,0-8.07h0c0-.13,0-.26,0-.39a4,4,0,0,1,5.53-3.75,5.58,5.58,0,0,1,10.32,1.16,5.58,5.58,0,0,1-1.07,11H19.8V19.73h1.9a1.93,1.93,0,1,0,0-1.7H18.1V24.4h3.52a7.38,7.38,0,0,0,2.46-14.34ZM6.15,19.56a.68.68,0,1,1,.68-.68A.68.68,0,0,1,6.15,19.56Zm17.27-1.37a.68.68,0,1,1-.68.68A.68.68,0,0,1,23.42,18.19Zm-8.53-6.92A1.93,1.93,0,0,0,14,14.93V24.4h1.7V14.93a1.93,1.93,0,0,0-.85-3.66Zm0,2.61a.68.68,0,1,1,.68-.68A.68.68,0,0,1,14.89,13.88Z"/></svg>